<svg width="155" height="35" viewBox="0 0 155 35" fill="none" xmlns="http://www.w3.org/2000/svg">
<mask id="path-1-inside-1_278_423" fill="white">
<path d="M0 14C0 6.26801 6.26801 0 14 0H140.703C148.435 0 154.703 6.26801 154.703 14V21C154.703 28.732 148.435 35 140.703 35H14C6.26801 35 0 28.732 0 21V14Z"/>
</mask>
<path d="M0 14C0 6.26801 6.26801 0 14 0H140.703C148.435 0 154.703 6.26801 154.703 14V21C154.703 28.732 148.435 35 140.703 35H14C6.26801 35 0 28.732 0 21V14Z" fill="#CFFF04" fill-opacity="0.08"/>
<path d="M14 0V1H140.703V0V-1H14V0ZM154.703 14H153.703V21H154.703H155.703V14H154.703ZM140.703 35V34H14V35V36H140.703V35ZM0 21H1V14H0H-1V21H0ZM14 35V34C6.82029 34 1 28.1797 1 21H0H-1C-1 29.2843 5.71572 36 14 36V35ZM154.703 21H153.703C153.703 28.1797 147.883 34 140.703 34V35V36C148.987 36 155.703 29.2843 155.703 21H154.703ZM140.703 0V1C147.883 1 153.703 6.8203 153.703 14H154.703H155.703C155.703 5.71573 148.987 -1 140.703 -1V0ZM14 0V-1C5.71573 -1 -1 5.71573 -1 14H0H1C1 6.8203 6.8203 1 14 1V0Z" fill="#CFFF04" fill-opacity="0.3" mask="url(#path-1-inside-1_278_423)"/>
<path d="M20.5 22.5V11.6667L30.5 10V20.8333" stroke="#CFFF04" stroke-width="1.66667" stroke-linecap="round" stroke-linejoin="round"/>
<path d="M18 25C19.3807 25 20.5 23.8807 20.5 22.5C20.5 21.1193 19.3807 20 18 20C16.6193 20 15.5 21.1193 15.5 22.5C15.5 23.8807 16.6193 25 18 25Z" stroke="#CFFF04" stroke-width="1.66667" stroke-linecap="round" stroke-linejoin="round"/>
<path d="M28 23.3334C29.3807 23.3334 30.5 22.2141 30.5 20.8334C30.5 19.4527 29.3807 18.3334 28 18.3334C26.6193 18.3334 25.5 19.4527 25.5 20.8334C25.5 22.2141 26.6193 23.3334 28 23.3334Z" stroke="#CFFF04" stroke-width="1.66667" stroke-linecap="round" stroke-linejoin="round"/>
<path d="M45.704 22.696C44.9013 22.696 44.2107 22.5513 43.632 22.262C43.0627 21.9633 42.624 21.5433 42.316 21.002C42.0173 20.4513 41.868 19.8027 41.868 19.056V12.7H43.716V19.112C43.716 19.7093 43.884 20.1807 44.22 20.526C44.5653 20.8713 45.06 21.044 45.704 21.044C46.348 21.044 46.838 20.8713 47.174 20.526C47.5193 20.1807 47.692 19.7093 47.692 19.112V12.7H49.54V19.056C49.54 19.8027 49.386 20.4513 49.078 21.002C48.7793 21.5433 48.3407 21.9633 47.762 22.262C47.1927 22.5513 46.5067 22.696 45.704 22.696ZM52.8302 22.5V12.7H54.6783V20.82H59.1583V22.5H52.8302ZM62.8463 22.5V14.38H59.9903V12.7H67.5503V14.38H64.6943V22.5H62.8463ZM70.3088 22.5V12.7H74.5648C75.1808 12.7 75.7174 12.8073 76.1748 13.022C76.6321 13.2367 76.9868 13.54 77.2388 13.932C77.4908 14.324 77.6168 14.786 77.6168 15.318V15.486C77.6168 16.074 77.4768 16.55 77.1968 16.914C76.9168 17.278 76.5714 17.544 76.1608 17.712V17.964C76.5341 17.9827 76.8234 18.1133 77.0288 18.356C77.2341 18.5893 77.3368 18.902 77.3368 19.294V22.5H75.4888V19.56C75.4888 19.336 75.4281 19.154 75.3068 19.014C75.1948 18.874 75.0034 18.804 74.7328 18.804H72.1568V22.5H70.3088ZM72.1568 17.124H74.3688C74.8074 17.124 75.1481 17.0073 75.3908 16.774C75.6428 16.5313 75.7688 16.214 75.7688 15.822V15.682C75.7688 15.29 75.6474 14.9773 75.4048 14.744C75.1621 14.5013 74.8168 14.38 74.3688 14.38H72.1568V17.124ZM79.9825 22.5L82.5585 12.7H85.7785L88.3545 22.5H86.4505L85.9185 20.344H82.4185L81.8865 22.5H79.9825ZM82.8525 18.636H85.4845L84.2945 13.862H84.0425L82.8525 18.636ZM95.9181 22.5V12.7H100.174C100.79 12.7 101.327 12.8073 101.784 13.022C102.241 13.2367 102.596 13.54 102.848 13.932C103.1 14.324 103.226 14.786 103.226 15.318V15.486C103.226 16.074 103.086 16.55 102.806 16.914C102.526 17.278 102.181 17.544 101.77 17.712V17.964C102.143 17.9827 102.433 18.1133 102.638 18.356C102.843 18.5893 102.946 18.902 102.946 19.294V22.5H101.098V19.56C101.098 19.336 101.037 19.154 100.916 19.014C100.804 18.874 100.613 18.804 100.342 18.804H97.7661V22.5H95.9181ZM97.7661 17.124H99.9781C100.417 17.124 100.757 17.0073 101 16.774C101.252 16.5313 101.378 16.214 101.378 15.822V15.682C101.378 15.29 101.257 14.9773 101.014 14.744C100.771 14.5013 100.426 14.38 99.9781 14.38H97.7661V17.124ZM105.592 22.5L108.168 12.7H111.388L113.964 22.5H112.06L111.528 20.344H108.028L107.496 22.5H105.592ZM108.462 18.636H111.094L109.904 13.862H109.652L108.462 18.636ZM116.637 22.5V12.7H120.669C121.285 12.7 121.826 12.826 122.293 13.078C122.769 13.3207 123.138 13.666 123.399 14.114C123.67 14.562 123.805 15.094 123.805 15.71V15.906C123.805 16.5127 123.665 17.0447 123.385 17.502C123.114 17.95 122.741 18.3 122.265 18.552C121.798 18.7947 121.266 18.916 120.669 18.916H118.485V22.5H116.637ZM118.485 17.236H120.487C120.926 17.236 121.28 17.1147 121.551 16.872C121.822 16.6293 121.957 16.298 121.957 15.878V15.738C121.957 15.318 121.822 14.9867 121.551 14.744C121.28 14.5013 120.926 14.38 120.487 14.38H118.485V17.236ZM126.586 22.5V12.7H128.434V22.5H126.586ZM131.498 22.5V20.876H132.786V14.324H131.498V12.7H135.53C136.846 12.7 137.844 13.036 138.526 13.708C139.216 14.3707 139.562 15.36 139.562 16.676V18.524C139.562 19.84 139.216 20.834 138.526 21.506C137.844 22.1687 136.846 22.5 135.53 22.5H131.498ZM134.634 20.82H135.558C136.304 20.82 136.85 20.624 137.196 20.232C137.541 19.84 137.714 19.2893 137.714 18.58V16.62C137.714 15.9013 137.541 15.3507 137.196 14.968C136.85 14.576 136.304 14.38 135.558 14.38H134.634V20.82Z" fill="#CFFF04"/>
</svg>
